<svg width="100" height="112" viewBox="0 0 100 112" fill="none" xmlns="http://www.w3.org/2000/svg">
<path d="M58.5557 40C63.6751 40.0001 67.8666 43.9572 68.2461 48.9795L74.8887 45.2285C76.2775 44.4439 77.9961 45.4469 77.9961 47.042V64.2109C77.9959 65.8052 76.2783 66.8086 74.8896 66.0254L68.2451 62.2773C67.8623 67.2963 63.6727 71.2499 58.5557 71.25H37.7227C32.3532 71.25 28 66.8968 28 61.5273V49.7227C28 44.3532 32.3532 40 37.7227 40H58.5557ZM45.9023 50.4502C45.5012 50.2188 45 50.5085 45 50.9717V59.2783C45 59.7415 45.5012 60.0312 45.9023 59.7998L53.0977 55.6465C53.4986 55.4148 53.4986 54.8352 53.0977 54.6035L45.9023 50.4502Z" fill="#6A53B0"/>
</svg>
