<svg width="100" height="112" viewBox="0 0 100 112" fill="none" xmlns="http://www.w3.org/2000/svg">
<path d="M96 37.3779C96 33.0346 93.6529 29.0304 89.8633 26.9082L55.8633 7.86817C52.2206 5.82826 47.7794 5.82826 44.1367 7.86817L10.1367 26.9082C6.34714 29.0304 4.00002 33.0346 4 37.3779V74.6221C4.00002 78.9654 6.34715 82.9696 10.1367 85.0918L44.1367 104.132C47.7794 106.172 52.2206 106.172 55.8633 104.132L89.8633 85.0918C93.6529 82.9696 96 78.9654 96 74.6221V37.3779ZM100 74.6221L99.9912 75.1631C99.803 80.7442 96.7125 85.8407 91.8174 88.582L57.8174 107.622C53.1123 110.257 47.4082 110.339 42.6406 107.869L42.1826 107.622L8.18262 88.582C3.28747 85.8407 0.196964 80.7442 0.00878906 75.1631L0 74.6221V37.3779C1.78608e-05 31.7678 2.93666 26.5817 7.71387 23.6904L8.18262 23.418L42.1826 4.37793C47.0394 1.6582 52.9606 1.6582 57.8174 4.37793L91.8174 23.418C96.8703 26.2476 100 31.5867 100 37.3779V74.6221Z" fill="#6A53B0"/>
</svg>
